# xmcd
# 
# Track frame offsets:
#   150
#   17550
#   32700
#   47325
#   64200
#   80175
#   94050
#   110550
#   127800
#   144600
#   161550
#   174675
#   192375
#   208950
#   225375
#   241350
#   260250
#   273525
#   294000
# 
# Disc length: 4097 seconds
# 
# Revision: 2
# Processed by: cddbd v1.5.2PL0 Copyright (c) Steve Scherf et al.
# Submitted via: VOLTOCDX V1.0.24 
# 
DISCID=0d0fff13
DTITLE=Various Artist - Sweet Georgia Brown- 21st Century Tool Box Disc 15
DYEAR=2010
DGENRE=Karaoke
TTITLE0=Dixie Chicks - Ready To Run
TTITLE1=Dixie Chicks - I Can Love You Better
TTITLE2=Dixie Chicks - Let 'Er Rip
TTITLE3=Dixie Chicks - Loving Arms
TTITLE4=Dixie Chicks - Once You've Loved Somebody
TTITLE5=Dixie Chicks - There's Your Trouble
TTITLE6=Dixie Chicks - Tonight The Heartache's On Me
TTITLE7=Dixie Chicks - Wide Open Spaces
TTITLE8=Dixie Chicks - You Were Mine
TTITLE9=Morgan, Lorrie - Dear Me
TTITLE10=Morgan, Lorrie - What Part Of No
TTITLE11=Morgan, Lorrie - Heart Over Mind
TTITLE12=Morgan, Lorrie - I Didn't Know My Own Strength
TTITLE13=Morgan, Lorrie - Watch Me
TTITLE14=Morgan, Lorrie - Five Minutes
TTITLE15=Rimes, LeAnn - Looking Through Your Eyes
TTITLE16=Rimes, LeAnn - Blue
TTITLE17=Rimes, LeAnn - How Do I Live
TTITLE18=Rimes, LeAnn - Hurt Me
EXTD=
EXTT0=
EXTT1=
EXTT2=
EXTT3=
EXTT4=
EXTT5=
EXTT6=
EXTT7=
EXTT8=
EXTT9=
EXTT10=
EXTT11=
EXTT12=
EXTT13=
EXTT14=
EXTT15=
EXTT16=
EXTT17=
EXTT18=
PLAYORDER=
